<?xml version="1.0" standalone="no"?>
<!DOCTYPE svg PUBLIC "-//W3C//DTD SVG 20010904//EN"
 "http://www.w3.org/TR/2001/REC-SVG-20010904/DTD/svg10.dtd">
<svg version="1.0" xmlns="http://www.w3.org/2000/svg"
 width="260.000000pt" height="260.000000pt" viewBox="0 0 260.000000 260.000000"
 preserveAspectRatio="xMidYMid meet">
<metadata>
Created by potrace 1.11, written by Peter Selinger 2001-2013
</metadata>
<g transform="translate(0.000000,260.000000) scale(0.100000,-0.100000)"
fill="#000000" stroke="none">
<path d="M555 1985 c-253 -53 -454 -242 -531 -500 -19 -61 -26 -260 -11 -315
3 -14 11 -43 16 -64 16 -66 77 -177 134 -246 66 -80 146 -142 241 -185 96 -45
177 -62 299 -64 56 -2 126 -3 155 -4 28 -1 52 -1 52 0 0 1 -27 18 -61 38 -116
71 -229 194 -292 320 -50 100 -70 190 -71 320 -1 135 4 176 34 267 54 162 184
323 331 411 l64 38 -150 -2 c-82 -1 -177 -7 -210 -14z"/>
<path d="M1105 1984 c-39 -8 -113 -35 -165 -61 -184 -90 -323 -267 -368 -468
-26 -117 -21 -250 14 -360 81 -251 314 -449 566 -480 43 -5 356 -10 393 -6 6
1 -10 13 -35 28 -321 188 -466 586 -338 932 54 147 196 320 321 390 31 18 57
35 57 37 0 11 -380 1 -445 -12z"/>
<path d="M1809 1996 c-2 -2 -22 -6 -44 -9 -139 -20 -318 -129 -413 -253 -107
-138 -147 -258 -146 -439 1 -101 5 -133 27 -200 95 -289 360 -484 658 -485
315 -1 583 200 675 505 19 62 27 267 12 330 -58 252 -233 445 -473 521 -58 18
-110 27 -186 30 -58 2 -107 2 -110 0z"/>
</g>
</svg>
